<svg width="44" height="29" viewBox="0 0 44 29" fill="none" xmlns="http://www.w3.org/2000/svg">
<g clip-path="url(#clip0_991_446)">
<path d="M43.9157 3.83165C43.8908 4.70498 43.5093 5.5939 42.7794 6.33806C40.259 8.90684 37.7417 11.4791 35.2275 14.0549C34.854 14.4351 34.8559 14.4367 35.2201 14.8095C37.7589 17.4184 40.2974 20.0272 42.8354 22.6361C43.8376 23.6692 44.2435 24.895 43.8526 26.3245C43.1056 29.0568 39.8273 29.9104 37.832 27.886C35.0487 25.062 32.2747 22.2282 29.5101 19.3846C28.2757 18.1228 27.0412 16.8608 25.8064 15.5986C25.0364 14.8099 25.0354 14.06 25.8064 13.276C29.784 9.22573 33.7635 5.17723 37.7448 1.13053C38.8413 0.0169934 40.3399 -0.291298 41.714 0.294422C43.0296 0.855327 43.917 2.20907 43.9157 3.83165Z" fill="#0C00FF"/>
<path d="M22.7999 10.9689C22.5866 11.1849 22.2985 11.3061 21.9983 11.3061C21.6981 11.3061 21.41 11.1849 21.1967 10.9689C19.7451 9.499 17.9433 7.68457 16.6187 6.34387C15.8864 5.60226 15.5017 4.71461 15.4737 3.84128C15.4671 2.2187 16.3498 0.86209 17.6635 0.296414C19.0358 -0.293761 20.5369 0.00816759 21.6356 1.11852C22.9147 2.41054 24.7663 4.34237 26.2325 5.84374C26.3384 5.95218 26.4224 6.08094 26.4795 6.22261C26.5366 6.36428 26.5658 6.51608 26.5654 6.66931C26.565 6.82255 26.535 6.97419 26.4771 7.11554C26.4192 7.2569 26.3347 7.38518 26.2282 7.49304L22.7999 10.9689Z" fill="#0C00FF"/>
<path d="M0.0842565 3.83165C0.109156 4.70498 0.490732 5.5939 1.22058 6.33806C3.74099 8.90684 6.25828 11.4791 8.77246 14.0549C9.14595 14.4351 9.14408 14.4367 8.77993 14.8095C6.24106 17.4184 3.7026 20.0272 1.16456 22.6361C0.162377 23.6692 -0.243477 24.895 0.147438 26.3245C0.894408 29.0568 4.17268 29.9104 6.16802 27.886C8.95152 25.062 11.7255 22.2282 14.4899 19.3846C15.7243 18.1228 16.9588 16.8608 18.1936 15.5986C18.9636 14.8099 18.9646 14.06 18.1936 13.276C14.216 9.22573 10.2365 5.17723 6.25517 1.13053C5.15868 0.0169934 3.66007 -0.291298 2.28595 0.294422C0.97035 0.855327 0.0830115 2.20907 0.0842565 3.83165Z" fill="#0C00FF"/>
<path d="M22.7779 17.9543C22.5646 17.7383 22.2765 17.6172 21.9763 17.6172C21.6761 17.6172 21.388 17.7383 21.1747 17.9543C19.7231 19.4232 17.9226 21.2376 16.5967 22.5783C15.8644 23.3199 15.4797 24.2076 15.4517 25.0809C15.4452 26.7035 16.3278 28.0601 17.6416 28.6258C19.0138 29.2166 20.5134 28.914 21.6136 27.8037C22.8928 26.5132 24.7443 24.5798 26.2103 23.0785C26.3162 22.9701 26.4002 22.8413 26.4574 22.6997C26.5145 22.558 26.5438 22.4062 26.5434 22.2529C26.543 22.0997 26.513 21.948 26.4552 21.8067C26.3973 21.6653 26.3127 21.537 26.2062 21.4292L22.7779 17.9543Z" fill="#0C00FF"/>
</g>
<defs>
<clipPath id="clip0_991_446">
<rect width="44" height="29" fill="white"/>
</clipPath>
</defs>
</svg>
