<?xml version="1.0" encoding="utf-8"?>
<!-- Generator: Adobe Illustrator 25.4.5, SVG Export Plug-In . SVG Version: 6.00 Build 0)  -->
<svg version="1.1" id="Layer_1" xmlns="http://www.w3.org/2000/svg" xmlns:xlink="http://www.w3.org/1999/xlink" x="0px" y="0px"
	 viewBox="0 0 4224.4 2000" style="enable-background:new 0 0 4224.4 2000;" xml:space="preserve">
<style type="text/css">
	.st0{fill:none;stroke:#0C00FF;stroke-width:4;stroke-miterlimit:10;}
	.st1{fill:#FFFFFF;}
	.st2{fill:#0C00FF;}
	.st3{fill:#F6F6F6;}
	.st4{fill:#282828;}
	.st5{font-family:'UbuntuTitling-Bold';}
	.st6{font-size:444.7443px;}
	.st7{letter-spacing:26;}
</style>
<g>
	<path class="st2" d="M3261.5,848.8c-0.3,11.3-5.4,22.9-15.1,32.5c-33.4,33.3-66.7,66.7-100.1,100.1c-4.9,4.9-4.9,4.9-0.1,9.8
		c33.7,33.8,67.3,67.6,100.9,101.5c13.3,13.4,18.7,29.3,13.5,47.8c-9.9,35.4-53.4,46.5-79.8,20.2c-36.9-36.6-73.6-73.5-110.3-110.2
		c-16.4-16.4-32.7-32.7-49.1-49.1c-10.2-10.2-10.2-20,0-30.1c52.7-52.5,105.5-105,158.2-157.5c14.5-14.4,34.4-18.4,52.6-10.8
		C3249.7,810.2,3261.5,827.8,3261.5,848.8z"/>
	<path class="st2" d="M2981.6,941.4c-5.9,5.8-15.4,5.8-21.3,0c-19.2-19.1-43.1-42.6-60.7-60c-9.7-9.6-14.8-21.1-15.2-32.4
		c-0.1-21,11.6-38.6,29-46c18.2-7.7,38.1-3.7,52.7,10.7c17,16.7,41.5,41.8,60.9,61.3c5.9,5.9,5.9,15.5-0.1,21.4L2981.6,941.4z"/>
	<path class="st2" d="M2680.5,848.8c0.3,11.3,5.4,22.9,15.1,32.5c33.4,33.3,66.7,66.7,100.1,100.1c4.9,4.9,4.9,4.9,0.1,9.8
		c-33.7,33.8-67.3,67.6-100.9,101.5c-13.3,13.4-18.7,29.3-13.5,47.8c9.9,35.4,53.4,46.5,79.8,20.2c36.9-36.6,73.6-73.5,110.3-110.2
		c16.4-16.4,32.7-32.7,49.1-49.1c10.2-10.2,10.2-20,0-30.1c-52.7-52.5-105.5-105-158.2-157.5c-14.5-14.4-34.4-18.4-52.6-10.8
		C2692.2,810.2,2680.5,827.8,2680.5,848.8z"/>
	<path class="st2" d="M2981.3,1032c-5.9-5.8-15.4-5.8-21.3,0c-19.2,19.1-43.1,42.6-60.7,60c-9.7,9.6-14.8,21.1-15.2,32.4
		c-0.1,21,11.6,38.6,29,46c18.2,7.7,38.1,3.7,52.7-10.7c17-16.7,41.5-41.8,60.9-61.3c5.9-5.9,5.9-15.5-0.1-21.4L2981.3,1032z"/>
</g>
<text transform="matrix(1 0 0 1 913.7075 1108.4475)" class="st2 st5 st6 st7">morphe</text>
</svg>
