<?xml version="1.0" encoding="utf-8"?>
<!-- Generator: Adobe Illustrator 27.3.0, SVG Export Plug-In . SVG Version: 6.00 Build 0)  -->
<svg version="1.1" id="Layer_1" xmlns="http://www.w3.org/2000/svg" xmlns:xlink="http://www.w3.org/1999/xlink" x="0px" y="0px"
	 viewBox="0 0 2000 2000" style="enable-background:new 0 0 2000 2000;" xml:space="preserve">
<style type="text/css">
	.st0{fill:#0C00FF;}
	.st1{fill:#FFFFFF;}
	.st2{fill:none;stroke:#FFFFFF;stroke-width:124;stroke-linecap:round;stroke-linejoin:round;stroke-miterlimit:10;}
	.st3{fill:none;stroke:#FFFFFF;stroke-width:130;stroke-linecap:round;stroke-linejoin:round;stroke-miterlimit:10;}
</style>
<path class="st0" d="M1000,64.2c506.3,0,916.8,426,916.8,940.5c0,490.5-410.5,931.5-916.8,931.5s-916.8-441-916.8-931.5
	C83.2,490.2,493.7,64.2,1000,64.2z"/>
<path class="st1" d="M665.4,970.4c-7.8-4.7-13.6-12.9-16.5-23.5c-9.7-36.6-19.5-73.1-29.2-109.7c-1.5-5.4-1.5-5.4-6.8-3.9
	c-36.9,10.2-73.8,20.3-110.7,30.4c-14.6,4-27.8,1.5-38.6-9.5c-20.6-21-10.9-55.7,17.9-63.9c40.1-11.3,80.4-22.4,120.5-33.6
	c17.9-5,35.8-9.9,53.7-14.9c11.2-3,18,0.8,20.9,12c15.3,57.7,30.5,115.4,45.7,173.2c4.2,15.9-1,31.4-13.5,41.1
	C696.9,977.4,680,978.7,665.4,970.4z"/>
<path class="st1" d="M1016.8,684.8c7.9-8.1,20.8-8.4,28.9-0.4c26.5,26,59.5,58.1,83.7,81.9c13.4,13.1,20.6,29,21.3,44.6
	c0.5,29.2-15.1,53.7-38.7,64.1c-24.6,10.9-51.8,5.8-71.8-13.8c-23.4-22.9-57.2-57.1-84.1-83.6c-8.1-8.1-8.3-21.3-0.3-29.7
	L1016.8,684.8z"/>
<path class="st1" d="M936.9,723c-6.9,7.1-18.2,7.4-25.3,0.4c-23.2-22.8-52.1-50.9-73.3-71.7c-11.7-11.5-18-25.4-18.7-39
	c-0.5-25.5,13.2-47,33.8-56.1c21.5-9.5,45.3-5.1,62.9,12.1c20.5,20,50.1,50,73.7,73.2c7.1,7.1,7.3,18.7,0.3,26L936.9,723z"/>
<path class="st2" d="M589.3,881.5c-33.1,65.3-51.7,139.1-51.7,217.3c0,265.9,215.5,481.4,481.4,481.4s481.4-215.5,481.4-481.4
	c0-142.7-62.1-270.9-160.8-359.1l-301.3-301.3"/>
<path class="st3" d="M810.6,990.1c-16.7,32.9-26.1,70.1-26.1,109.5c0,133.9,108.6,242.5,242.5,242.5s242.5-108.6,242.5-242.5
	c0-71.9-31.3-136.5-81-180.9l-151.7-151.8"/>
</svg>
