<?xml version="1.0" encoding="utf-8"?>
<!-- Generator: Adobe Illustrator 25.4.5, SVG Export Plug-In . SVG Version: 6.00 Build 0)  -->
<svg version="1.1" id="Layer_1" xmlns="http://www.w3.org/2000/svg" xmlns:xlink="http://www.w3.org/1999/xlink" x="0px" y="0px"
	 viewBox="0 0 2000 2000" style="enable-background:new 0 0 2000 2000;" xml:space="preserve">
<style type="text/css">
	.st0{fill:none;stroke:url(#SVGID_1_);stroke-width:2;stroke-miterlimit:10;}
	.st1{fill:none;stroke:url(#SVGID_00000028295088425322942160000014961105958064260487_);stroke-width:2;stroke-miterlimit:10;}
	.st2{fill:none;stroke:url(#SVGID_00000098218930064256853830000002799032119978853786_);stroke-width:2;stroke-miterlimit:10;}
	.st3{fill:none;stroke:url(#SVGID_00000092425538832498906210000009641962310633116800_);stroke-width:2;stroke-miterlimit:10;}
	.st4{fill:none;stroke:#1D1D1B;stroke-miterlimit:10;}
	.st5{display:none;fill:url(#SVGID_00000042705674454233093400000004555430702090305458_);}
</style>
<linearGradient id="SVGID_1_" gradientUnits="userSpaceOnUse" x1="350.227" y1="1033.1104" x2="1751.8247" y2="1033.1104">
	<stop  offset="1.260747e-03" style="stop-color:#F1F1F1"/>
	<stop  offset="1" style="stop-color:#A7B3F0"/>
</linearGradient>
<path class="st0" d="M351.3,1058.3c0-123.1-0.3-246.2,0.2-369.3c0.1-34.4,10.6-66.1,33.2-92.6c24.7-28.9,56.1-44.1,94.9-44.9
	c45.6-0.9,83.1,16.3,113.8,48.6c17.4,18.3,32.6,38.6,48.6,58.2c21.7,26.4,43.1,53,64.8,79.4c23.1,28.1,45.2,57.1,72.1,81.9
	c20.7,19,42.8,36,69.9,45.1c27.1,9.1,53.6,7.9,79.3-5c28.2-14.3,50.9-34.1,62.4-64.5c9.3-24.6,9.6-49.6,3.2-75.1
	c-5.8-23.3-15.4-44.5-30.5-62.9c-20.4-24.8-41.6-49-62.4-73.6c-19.1-22.5-37.8-45.3-57.2-67.5c-16.5-18.9-33.3-37.5-48.2-57.7
	c-18.2-24.6-32.9-51-43.9-79.6c-9.6-25-12.6-50.8-10.5-77.2c1.6-20,9.1-38.4,20.5-54.9c25.1-36,60.1-58.9,102.2-68.5
	c56.2-12.8,106.7-0.7,147.1,42.8c15.7,16.9,26.8,36.7,35,58.4c9.1,24,13.4,48.6,14.8,73.9c0.2,3.5-0.3,7.1-0.3,10.6
	c0,83.3-0.3,166.7,0.2,250c0.1,17.9,2.5,35.8,11.1,52.2c14.5,27.4,37.2,44,67.1,50.9c23.2,5.3,46.9,2.2,70.3,2.8
	c14,0.3,28.1-0.9,42,0.5c15.2,1.5,30.5,4.9,41.4,17.2c12.9,14.6,13.8,32.1,10.2,50.2c-5.8,28.7-26.7,46.2-48.3,62.8
	c-23.1,17.7-47.3,33.9-69.3,52.9c-24.7,21.3-43.6,47.4-56.3,77.5c-9.7,23-14.1,47.4-11,72.2c2.6,20.9,10.1,40.5,23.3,57.3
	c18.5,23.5,41.8,40.2,70.7,48.4c31.3,8.9,61.6,4.3,90.8-8.5c39.7-17.3,69.9-46,96.2-79.8c25.1-32.5,47.5-66.9,72.5-99.5
	c12.4-16.2,24.1-32.9,37.9-47.9c20.5-22.2,44.1-39.5,74.2-46.8c15.6-3.8,31.3-6.5,47.3-5.8c32.4,1.3,62.3,9.9,85.2,34.6
	c15.9,17.1,24.6,37.9,30.1,60.7c5.7,23.5,4.8,47.1,4.8,70.8c0.1,109.8,0.1,219.6,0,329.3c0,32.6-6.2,64-20.4,93.3
	c-18.5,38.2-48,63.3-90.3,71.4c-37.5,7.1-72.5-0.8-105.3-19.9c-31.7-18.4-59.4-41.8-85.4-67.5c-24-23.7-48.8-46.6-73.1-70
	c-15.2-14.6-29.9-29.7-45-44.4c-20.5-19.9-41.3-39.7-61.9-59.6c-12.1-11.7-24-23.7-36-35.5c-14.9-14.5-30-28.9-45-43.4
	c-16.4-15.9-32.8-31.9-49.1-47.9c-14.6-14.4-30.4-27.1-49.7-35c-25-10.3-48.8-1.6-61.5,22.3c-8.3,15.7-11.8,32.6-11.8,50
	c-0.2,191.1,0.4,382.2-0.6,573.3c-0.2,42.7-14.1,81.8-48.6,110.5c-15.6,13-33.8,20.7-53.7,25.1c-16.9,3.7-33.9,4.3-50.9,3.8
	c-55.4-1.6-103.5-32.9-125.2-87.6c-10-25.2-13.7-51.3-13.8-78c-0.2-75.1,0.2-150.2-0.2-225.3c-0.1-20.9,0.9-41.8,4.7-62.2
	c7.3-40,22.9-76.7,49.9-107.9c10.7-12.3,23.1-22.7,35.1-33.4c11.9-10.6,23.3-21.8,35-32.6c25-23.3,50.8-45.8,74.6-70.4
	c23.8-24.7,45.6-50.9,61.5-81.6c13.3-25.8,18.5-53.2,14.7-81.9c-2.4-18.2-10.8-34.6-21-49.8c-13.6-20.1-29.9-37.4-51.6-49.1
	c-19.9-10.8-41.1-15.5-63.9-15.6c-26.9-0.2-51.5,6.5-74.1,20.2c-33.9,20.4-55.4,50.6-65.7,88.7c-7.4,27.2-9.7,55.4-13.8,83.2
	c-2.4,16.2-4.9,32.4-7.4,48.6c-3.1,20.8-6.2,41.6-9.4,62.4c-4,26.3-8.1,52.5-12,78.8c-3.7,25-6.8,50-10.9,74.9
	c-3.7,22.3-5.7,44.9-12.4,66.6c-8.6,27.8-21.4,53.3-40.8,75.5c-21.7,24.7-48.3,41-79.9,48.5c-19.9,4.7-40.1,5.6-60.6,2.1
	c-17-2.9-33.4-7.1-48.6-15.1c-33.9-17.7-56.6-44.8-68.1-81.4c-5.6-17.8-7.5-35.8-7.5-54.4C351.4,1296.5,351.3,1177.4,351.3,1058.3z"
	/>
</svg>
