<?xml version="1.0" encoding="utf-8"?>
<!-- Generator: Adobe Illustrator 25.4.5, SVG Export Plug-In . SVG Version: 6.00 Build 0)  -->
<svg version="1.1" id="Layer_1" xmlns="http://www.w3.org/2000/svg" xmlns:xlink="http://www.w3.org/1999/xlink" x="0px" y="0px"
	 viewBox="0 0 2000 2000" style="enable-background:new 0 0 2000 2000;" xml:space="preserve">
<style type="text/css">
	.st0{fill:none;stroke:url(#SVGID_1_);stroke-width:2;stroke-miterlimit:10;}
	.st1{fill:none;stroke:url(#SVGID_00000161596494519389161260000001549715413948257948_);stroke-width:2;stroke-miterlimit:10;}
	.st2{fill:none;stroke:url(#SVGID_00000034768577122126205620000012320419715207564730_);stroke-width:2;stroke-miterlimit:10;}
	.st3{fill:none;stroke:url(#SVGID_00000070110719972733279860000017619050879168401343_);stroke-width:2;stroke-miterlimit:10;}
	.st4{fill:none;stroke:#1D1D1B;stroke-miterlimit:10;}
	.st5{display:none;fill:url(#SVGID_00000178200867791634890290000000162067703767909020_);}
</style>
<g>
	<linearGradient id="SVGID_1_" gradientUnits="userSpaceOnUse" x1="171.1698" y1="1034.4406" x2="1896.3528" y2="1034.4406">
		<stop  offset="1.260747e-03" style="stop-color:#F1F1F1"/>
		<stop  offset="1" style="stop-color:#A7B3F0"/>
	</linearGradient>
	<path class="st0" d="M192.7,1607.6c0-11.3,0.4-22.6-0.1-33.8c-1.4-32.3-2.5-64.7-4.6-97c-1.4-20.2-1.4-40.4-2.4-60.6
		c-1.3-26.1-3.8-52.2-4.3-78.4c-0.8-39.4-4.6-79.1,4.3-118.2c5.9-25.8,18.8-48.1,36.7-67c43.1-45.5,91.1-85.5,140.5-123.8
		c35.9-27.9,72.3-55.5,103-89.3c22.7-25,42.8-51.8,52.2-85c7.7-27.3,5.5-54.1-4.8-80.4c-12.3-31.3-33.8-55.5-59.1-76.7
		c-46.6-38.9-93.9-76.9-142.4-113.4c-21.1-15.9-43.1-30.7-62.9-48.2c-27.5-24.4-50-52.4-63.9-87c-23.3-58-14.4-111.7,20.9-161.8
		c21.7-30.7,49.3-54.6,85.3-67.2c80.9-28.2,164.2-6.3,216.5,64c19.3,26,31.3,55.7,38.5,87.1c11.2,48.3,21.9,96.7,32.5,145.2
		c9.6,43.5,17.3,87.4,26.2,131c6.2,30.6,14.3,60.8,22.8,90.8c8.9,31.6,16.6,63.7,27.1,94.7c11.9,35.2,26.9,69.2,56.3,94.1
		c24.3,20.6,52.7,31.2,84.6,32.5c26.6,1.1,52.2-2.4,76.1-15.3c21.5-11.6,38.1-28.7,53.5-47.1c25.7-30.7,47.7-64.1,69.7-97.6
		c22.8-34.8,44.2-70.5,71.4-102.2c34.2-40,76-67.5,128.2-78.1c26-5.3,52.2-7.9,78.6-9.7c41.4-2.8,82.6,1.8,123.9,2.5
		c28.9,0.5,57.8,3,86.6,5.2c27.2,2.1,54.4,5,81.6,7.4c10.1,0.9,20.2,0.8,30.3,1.5c18.5,1.4,37.2,1.3,55.7,3
		c37.7,3.6,75.6,6.9,112,18.2c48.7,15.2,87.6,43.7,110.8,90.1c14.3,28.4,22.7,58.8,20.8,91.1c-2,34.3-14.5,64.8-35.1,92.1
		c-30.2,40-70.5,63.5-119.7,70.9c-27,4.1-54,1.2-80.5-6.6c-40.6-11.9-72.9-36.3-101.5-66.4c-27.4-28.8-52.6-59.5-78.1-90
		c-34.1-40.8-70.4-79.6-111.8-113.1c-29.2-23.6-62.8-37.5-100.8-40.3c-40.8-2.9-76.9,8.3-107.2,35.8c-19.4,17.6-30.9,40.1-38.5,65.1
		c-13,42.5-4.9,81.2,19.6,117.3c22.4,33,51.2,60.1,81.5,85.6c35.1,29.4,70.6,58.2,106.1,86.9c23.1,18.7,46.4,37,66.7,58.8
		c23.5,25.2,42.4,53.2,51.1,87.1c9.8,38.6,10.3,77.1-4.7,114.4c-14.5,35.8-39.3,63.3-72.6,83.2c-62.8,37.6-146.3,29.5-201.6-12
		c-30.3-22.7-55.8-50.5-81.3-78.3c-21-22.8-42.6-45.1-65.3-66.2c-11.8-11-23.4-22.1-34.9-33.4c-26.2-25.8-53.7-50.4-84.1-71.1
		c-27.6-18.8-57.5-32.5-91.6-32.1c-23.7,0.2-46.1,6.9-67.2,18.3c-39.9,21.5-62.6,56.4-77.8,97.3c-17.2,45.9-29.9,93.1-41.8,140.6
		c-8.1,32.3-16.5,64.5-23.6,97c-5.7,26-10.4,52.3-17.7,77.9c-14.6,51.5-24.2,104.3-38.1,156c-8.3,31-18.7,61.5-38.7,87
		c-41.4,52.6-94.5,80.3-162.6,68c-71.7-12.9-116.9-57.3-139.7-125.3c-6.6-19.7-7.8-40.5-9.1-61.2
		C192.7,1650.3,193.5,1629,192.7,1607.6z"/>
</g>
</svg>
