<?xml version="1.0" encoding="utf-8"?>
<!-- Generator: Adobe Illustrator 25.4.5, SVG Export Plug-In . SVG Version: 6.00 Build 0)  -->
<svg version="1.1" id="Layer_1" xmlns="http://www.w3.org/2000/svg" xmlns:xlink="http://www.w3.org/1999/xlink" x="0px" y="0px"
	 viewBox="0 0 2000 2000" style="enable-background:new 0 0 2000 2000;" xml:space="preserve">
<style type="text/css">
	.st0{fill:none;stroke:url(#SVGID_1_);stroke-width:2;stroke-miterlimit:10;}
	.st1{fill:none;stroke:url(#SVGID_00000022539771190573484180000017632524690846182533_);stroke-width:2;stroke-miterlimit:10;}
	.st2{fill:none;stroke:url(#SVGID_00000070097270436178551510000002262788463020182411_);stroke-width:2;stroke-miterlimit:10;}
	.st3{fill:none;stroke:url(#SVGID_00000056423037269023113680000009356877250574217908_);stroke-width:2;stroke-miterlimit:10;}
	.st4{fill:none;stroke:#1D1D1B;stroke-miterlimit:10;}
	.st5{display:none;fill:url(#SVGID_00000098902574897849952390000002317905843045219764_);}
</style>
<linearGradient id="SVGID_1_" gradientUnits="userSpaceOnUse" x1="101.0512" y1="1001.8664" x2="1890.0455" y2="1001.8664">
	<stop  offset="1.260747e-03" style="stop-color:#F1F1F1"/>
	<stop  offset="1" style="stop-color:#A7B3F0"/>
</linearGradient>
<path class="st0" d="M1518.1,951.2c-28.6,0-51.1,0.3-73.5-0.1c-33.8-0.7-67.7-0.9-101.4-3.1c-30.5-1.9-60.9-0.5-91.3-1.5
	c-42.6-1.4-84.4-6.8-123.9-24.2c-28.1-12.4-53.5-29.2-75.7-50.4c-27.5-26.2-51.4-55.9-76.8-84.1c-32.4-36-61.6-74.9-96.9-108.2
	c-32.3-30.5-69.4-54.4-113.3-63.6c-46-9.7-87.9,1.8-123.7,33.1c-35.9,31.5-49.3,72.4-49,118.8c0.2,27.3,4.6,53.9,18,78.2
	c18,32.6,46.5,52.5,80.8,64.7c29.3,10.4,59.8,15.4,90.6,19.3c37.9,4.8,76.1,6.6,114,10.4c54,5.4,107.9,11,162,16.1
	c23.7,2.2,47.5,3.3,71.3,4.6c55.1,3.1,110.2,6,164.7,16.1c29.8,5.5,60.2,8.2,90.5,11.5c60.5,6.6,121.1,11.3,181.3,20.8
	c43.5,6.9,86.6,16,129.8,25c30.4,6.3,60.1,14.7,87.6,29.4c48.4,25.7,84.2,63.2,98.6,116.6c16.1,59.8,5.4,115.3-36.1,163.3
	c-27.6,32-62.6,51.8-103.1,61.3c-40.3,9.4-79.6,4.1-117.9-11.5c-44.7-18.2-78.8-49.1-108.8-85.8c-19.1-23.3-38.3-46.7-58.9-68.8
	c-21.1-22.6-40.5-46.7-60.9-69.9c-35.2-40.2-74.3-75.2-126.5-92.2c-16.8-5.5-34-9.5-51.5-9.4c-21,0.2-41.5,4.8-60.7,14
	c-46.9,22.3-75.3,59.5-85.7,109.7c-9.4,45.5,2.6,86.4,32.9,121.7c21.6,25.2,46.1,47.5,70.1,70.3c36.3,34.6,72.4,69.3,110,102.5
	c25.9,22.9,52.1,45.4,75.8,70.7c26.2,27.9,46.9,59,56.3,96.7c6.8,27.4,4.8,54.3-3.4,81.2c-9.7,32.1-26.3,59.7-52,81.3
	c-23.1,19.4-49.5,32.8-78.5,40.9c-42.5,11.9-86.1,15.1-130,16.4c-48.2,1.4-96.4,0.6-144.7,1.3c-56.9,0.8-113.9,2.8-170.8,4.9
	c-93.1,3.5-186.1,1.6-279.1,2.3c-26.1,0.2-52.2,0.5-78.2-0.6c-32.3-1.3-64.6-2.3-96.9-4.8c-26.7-2.1-53.5-2.4-80.2-3.7
	c-42.8-2.1-84.4-9.5-120.9-33.7c-45-29.8-71.2-71.7-77.5-125.5c-5.7-48.3,5.4-92.4,33.8-131.9c19.8-27.6,45.4-47.6,76.9-60.7
	c32.6-13.6,66.8-20.8,101-28.7c44.1-10.2,88.1-20.7,132.3-30.6c66-14.8,131.2-33,197-49c44.4-10.8,89.3-20.5,131.9-37.8
	c29.8-12.1,59.4-24.8,85-44.8c37.1-29,51.3-68,48.2-114c-4.3-63.2-52.7-126.2-121.1-137.8c-41.7-7.1-79.2,2.3-113.6,26
	c-29.6,20.3-53.2,47-77.3,73.1c-41.9,45.4-80.2,94.1-123.5,138.3c-26.1,26.6-52.9,52.4-82.7,74.9c-27.3,20.6-58.3,30.7-92.4,31.7
	c-42.2,1.2-81.4-9.2-116-33.3c-52-36.3-79.8-86.9-82.2-150.5c-1.9-48.3,17-89.1,46.8-125.8c20.7-25.5,45.8-46.3,69.8-68.4
	c40.4-37.1,84-70.3,125.5-106.1c27.7-23.8,56.7-46.1,81.8-72.8c26.4-27.9,41.3-60.7,40.1-99.5c-0.9-30.4-12.4-57.3-30.1-81.7
	c-17.4-24-39.4-43.7-60.9-63.7c-21.4-19.9-43.7-38.7-66.4-57.2c-31.3-25.5-63-50.7-93.9-76.6c-29.3-24.5-57.7-50.1-79.5-82
	c-42.6-62.3-40.6-143.4,4.8-203.7c33.7-44.8,79.2-69.3,133.8-76.7c47.6-6.5,90.7,7.1,129.3,35.2c28,20.5,52.4,44.9,75.3,70.9
	c38.5,44,68.6,93.9,101,142.2c14.1,21,29.5,41.1,47,59.6c22.5,23.9,51,35.8,81.9,43.7c45.1,11.6,91.4,16.4,137.4,22.8
	c26.5,3.7,53.3,4.6,79.9,7.4c36.2,3.8,72.5,7.7,108.8,10.7c28.6,2.3,57.2,5,85.8,7.2c13.1,1,26.2,1.3,39.4,2
	c35.2,1.9,70.4,4.3,105.5,7.9c18.4,1.9,36.9,2.1,55.3,3.7c28.1,2.5,56.2,4.4,84.2,7.7c22.2,2.6,44.5,4.8,66.9,5.6
	c32.8,1.2,65.6,3.8,98.3,6.5c30.6,2.5,60.9,6.5,91.3,10.6c25.6,3.5,51.1,7.5,75.7,15.3c74.3,23.6,135,76,146.2,163.3
	c6.6,51.1-7.2,97.1-42.2,135.8c-29.5,32.7-66.5,51.6-109.6,59.3c-34.4,6.1-69.1,7.5-103.9,8.8
	C1588.9,951.5,1550.4,951.1,1518.1,951.2z"/>
</svg>
