<?xml version="1.0" encoding="utf-8"?>
<!-- Generator: Adobe Illustrator 25.4.5, SVG Export Plug-In . SVG Version: 6.00 Build 0)  -->
<svg version="1.1" id="Layer_1" xmlns="http://www.w3.org/2000/svg" xmlns:xlink="http://www.w3.org/1999/xlink" x="0px" y="0px"
	 viewBox="0 0 2000 2000" style="enable-background:new 0 0 2000 2000;" xml:space="preserve">
<style type="text/css">
	.st0{fill:none;stroke:url(#SVGID_1_);stroke-width:2;stroke-miterlimit:10;}
	.st1{fill:none;stroke:url(#SVGID_00000131327839712095682430000012157232458060591778_);stroke-width:2;stroke-miterlimit:10;}
	.st2{fill:none;stroke:url(#SVGID_00000047754848948564634300000013126926163965933209_);stroke-width:2;stroke-miterlimit:10;}
	.st3{fill:none;stroke:url(#SVGID_00000044874857627814852400000008947010354570664351_);stroke-width:2;stroke-miterlimit:10;}
	.st4{fill:none;stroke:#1D1D1B;stroke-miterlimit:10;}
	.st5{display:none;fill:url(#SVGID_00000031167324565766404810000017613620185821348493_);}
</style>
<linearGradient id="SVGID_1_" gradientUnits="userSpaceOnUse" x1="79.2316" y1="1030.177" x2="1920.7684" y2="1030.177">
	<stop  offset="1.260747e-03" style="stop-color:#F1F1F1"/>
	<stop  offset="1" style="stop-color:#A7B3F0"/>
</linearGradient>
<path class="st0" d="M1915.6,369.4c1.2,57.8,0.3,115.6,1.5,173.4c0.8,39.3,3.4,78.6,2.5,118c-1,41-2.1,82-3.1,123
	c-0.9,35.6-6.6,70.6-24.4,102.5c-15.8,28.5-37.7,51.8-61.8,73.2c-31.9,28.1-65.7,53.9-98.2,81.2c-34.3,28.9-70.6,55.6-101.4,88.5
	c-25.7,27.5-48.8,56.7-61.1,93c-6.3,18.5-10.8,37.5-15.3,56.4c-10.7,45-21.4,89.9-31.6,134.9c-6.5,28.6-11.6,57.5-18.3,86.1
	c-5,21-9.3,42.2-13.4,63.4c-4,20.5-6,41.4-9.5,62c-3,17.8-6.9,35.4-10.4,53.1c-4.3,21.7-8,43.5-12.9,65.1
	c-11,47.8-28.4,92.5-62.3,129.5c-26.9,29.4-59.5,48-99,53.7c-19.2,2.7-38.5,1.4-57.7-1.8c-21.3-3.5-41.9-9.3-61.4-18.6
	c-24.9-11.8-46.4-28.6-67-46.5c-21.9-19.1-42.4-39.6-62.4-60.5c-34.5-36.2-68.1-73.1-102.7-109.2c-28.2-29.4-55.2-60.3-89.7-82.9
	c-23.2-15.2-48.1-25.5-76.2-26.6c-45.6-1.7-85.1,14.2-119,44c-32.1,28.2-60.1,60.6-89.4,91.7c-18.5,19.7-37.8,38.6-56.2,58.4
	c-23.8,25.6-47.1,51.7-70.4,77.8c-26.6,29.6-55.1,56.9-90.9,75.3c-25.5,13.1-52.6,20.4-81.3,20.5c-30.5,0.1-59.2-7.8-85.8-22.6
	c-29.6-16.5-55.3-37.8-75.4-65.5c-17.4-24-27.7-50.3-30.5-80.1c-2.9-30.8,1.6-60,13-88.5c21.8-54.3,60-92.6,113-116.4
	c24.9-11.2,51.2-18.2,77.7-24.5c35.6-8.5,71.4-15.9,106.8-25.2c19.3-5.1,38.8-9,58.4-13c29.7-6,59-13.9,88.5-20.7
	c16.6-3.8,33.4-7,50.1-10.6c20.2-4.3,40.5-8.3,60.5-13.6c14.6-3.8,29.6-6.3,44.5-9.4c20.7-4.4,41.3-8.9,61.9-14.1
	c23.4-5.8,46.6-12,69.3-20.1c28.3-10.2,54.3-24.2,73.5-48.1c11.6-14.5,19.4-30.9,23.3-49.2c7-33.4,5.6-67.2,5.4-100.9
	c-0.2-48.1,0.9-96.2-0.3-144.3c-2-78-0.2-156-1.3-234.1c-0.5-37.2-4.4-74.1-15.7-109.8c-11.2-35.3-31-64.9-59.6-88.1
	c-44.5-36.2-89.7-71.6-134.4-107.5c-26.9-21.6-52.5-44.7-78.1-67.8c-19.5-17.6-37.1-36.7-50.4-59.3c-25.1-42.6-37.1-88-28.8-137.8
	c7-41.7,25.7-77,58.3-103.5c38.6-31.4,82.6-49.8,133.6-49.8c42.3-0.1,80.7,11.1,114.5,36.2c24.2,18,43.9,40.6,60.3,66
	c20.7,32.1,32.9,67.5,40.5,104.7c6.6,32.8,11.3,65.9,14.9,99.2c2.4,21.5,6.5,42.9,9.8,64.3c3.3,21.2,6.1,42.5,9.9,63.6
	c5.9,32.5,9.1,65.4,13.7,98c4.1,29.6,8.8,59.1,13.2,88.6c6.5,44.4,11.7,88.9,18,133.2c1.8,12.8,3.1,25.8,4.1,38.8
	c2,24,5.5,47.9,8.4,71.8c3.9,32.3,8.5,64.5,12.5,96.7c4,32,6.9,64.2,11.7,96.1c6.5,42.8,12.5,86,28.8,126.5
	c15.5,38.6,39.1,70.9,75.6,92.4c14.7,8.6,30.6,13.8,47.2,17.5c20.3,4.6,40.8,5.1,61,2.1c23.8-3.5,44.9-14.2,63-30.3
	c35.8-31.8,53.9-73.1,64.4-118.7c6.1-26.5,9.6-53.5,13.7-80.3c3.7-24,5.5-48.3,7.6-72.5c2.3-26.9,3.8-53.8,5.9-80.7
	c1.9-23.3,5.1-46.4,7.9-69.5c2-16.7,2.8-33.5,4.9-50.3c1.8-14.1,4-28.1,4.9-42.3c1-15.1,3.4-30.1,4.3-45.2
	c1.5-24.5,4.7-48.8,7.8-73.2c1.4-11.4,2.9-23,3.3-34.5c1.1-26.7,3.7-53.3,6.4-79.9c2.1-20.6,4.6-41.1,6.8-61.7
	c2.5-23,4.9-45.9,7.6-68.9c2.2-19.1,4.6-38.2,7-57.3c4.8-38.4,8.7-76.9,15.3-115.2c4.3-25.2,8.7-50.3,15.6-74.9
	c14.9-53.2,39.6-99.8,90.8-126.8c34.1-17.9,70.3-28.2,109.3-24c33.5,3.6,64.4,14.9,91.4,35.3c23.8,17.9,40.7,41.6,53.3,68.5
	c13,27.9,19.8,57.3,24,87.5C1912.4,326.1,1914.7,347.7,1915.6,369.4z"/>
</svg>
